<?xml version="1.0" encoding="UTF-8"?>
<svg height="600" width="800" xmlns="http://www.w3.org/2000/svg" xmlns:xlink="http://www.w3.org/1999/xlink">
    <g id="Notes" font-family="'LucidaGrande', 'Lucida Grande', sans-serif" font-size="13">
        <rect fill="white" height="600.0" width="800.0" x="0.0" y="0.0" />
        <g font-size="13">
            <text x="18.0" y="176.0">Small</text>
            <text x="18.0" y="376.0">Medium</text>
            <text x="18.0" y="576.0">Large</text>
        </g>
        <g font-size="9">
            <text x="250.0" y="30.0">Ultralight</text>
            <text x="450.0" y="30.0">Regular</text>
            <text x="650.0" y="30.0">Black</text>
            <text id="template-version" fill="#505050" text-anchor="end" x="785.0" y="575.0">Template v.3.0</text>
            <a href="https://wangchujiang.com/#/app">
                <text fill="#505050" text-anchor="end" x="785.0" y="590.0">https://wangchujiang.com/#/app</text>
            </a>
        </g>
    </g>
    <g id="Guides" stroke="rgb(39, 170, 225)" stroke-width="0.5">
        <path id="Capline-S" d="M18,76 l800,0" />
        <path id="H-reference" d="M85,145.755 L87.685,145.755 L113.369,79.287 L114.052,79.287 L114.052,76 L112.148,76 L85,145.755 Z M95.693,121.536 L130.996,121.536 L130.263,119.313 L96.474,119.313 L95.693,121.536 Z M139.15,145.755 L141.787,145.755 L114.638,76 L113.466,76 L113.466,79.287 L139.15,145.755 Z" stroke="none" />
        <path id="Baseline-S" d="M18,146 l800,0" />
        <path id="left-margin-Ultralight-S" d="M220,56 l0,110" />
        <path id="right-margin-Ultralight-S" d="M310,56 l0,110" />
        <path id="left-margin-Regular-S" d="M420,56 l0,110" />
        <path id="right-margin-Regular-S" d="M510,56 l0,110" />
        <path id="left-margin-Black-S" d="M620,56 l0,110" />
        <path id="right-margin-Black-S" d="M710,56 l0,110" />
        <path id="Capline-M" d="M18,276 l800,0" />
        <path id="Baseline-M" d="M18,346 l800,0" />
        <path id="Capline-L" d="M18,476 l800,0" />
        <path id="Baseline-L" d="M18,546 l800,0" />
    </g>
    <g id="Symbols">
        <g id="Ultralight-S">
            <path d="M265,76 C284.316,76 300,91.684 300,111 C300,130.316 284.316,146 265,146 C245.684,146 230,130.316 230,111 C230,91.684 245.684,76 265,76 Z M255.899,118.419 C256.683,118.419 257.123,118.018 257.396,117.057 L258.141,114.803 L263.243,114.803 L263.988,117.086 C264.253,118.027 264.692,118.417 265.526,118.417 C266.388,118.417 267.005,117.827 267.005,116.995 C267.005,116.694 266.957,116.425 266.818,116.034 L262.94,105.278 C262.519,104.096 261.833,103.576 260.677,103.576 C259.561,103.576 258.866,104.116 258.456,105.287 L254.598,116.031 C254.47,116.403 254.402,116.742 254.402,116.993 C254.402,117.863 254.981,118.415 255.899,118.415 Z M258.788,112.461 L260.62,106.543 L260.689,106.543 L262.56,112.461 L258.791,112.461 Z M271.743,118.419 C272.672,118.419 273.221,117.838 273.221,116.847 L273.221,106.283 L276.149,106.283 C276.942,106.283 277.48,105.812 277.48,105.032 C277.48,104.251 276.952,103.781 276.149,103.781 L267.347,103.781 C266.534,103.781 266.005,104.253 266.005,105.032 C266.005,105.814 266.543,106.283 267.347,106.283 L270.266,106.283 L270.266,116.847 C270.266,117.838 270.815,118.419 271.745,118.419 Z M242.993,118.23 L246.91,118.23 C251.15,118.23 253.648,115.537 253.648,110.95 C253.648,106.363 251.15,103.781 246.91,103.781 L242.993,103.781 C242.063,103.781 241.514,104.362 241.514,105.354 L241.514,116.649 C241.514,117.649 242.063,118.23 242.993,118.23 Z M244.472,115.726 L244.472,106.274 L246.557,106.274 C249.161,106.274 250.631,107.935 250.631,110.961 C250.631,114.085 249.202,115.728 246.557,115.728 L244.472,115.728 Z M280.429,118.23 L287.146,118.23 C287.96,118.23 288.488,117.758 288.488,116.979 C288.488,116.198 287.951,115.728 287.146,115.728 L281.908,115.728 L281.908,112.082 L286.891,112.082 C287.636,112.082 288.124,111.643 288.124,110.92 C288.124,110.2 287.625,109.758 286.891,109.758 L281.908,109.758 L281.908,106.283 L287.146,106.283 C287.948,106.283 288.488,105.812 288.488,105.032 C288.488,104.251 287.96,103.781 287.146,103.781 L280.429,103.781 C279.499,103.781 278.95,104.362 278.95,105.354 L278.95,116.649 C278.95,117.649 279.499,118.23 280.429,118.23 Z" />
        </g>
        <g id="Regular-S">
            <path d="M465,76 C484.316,76 500,91.684 500,111 C500,130.316 484.316,146 465,146 C445.684,146 430,130.316 430,111 C430,91.684 445.684,76 465,76 Z M455.899,118.419 C456.683,118.419 457.123,118.018 457.396,117.057 L458.141,114.803 L463.243,114.803 L463.988,117.086 C464.253,118.027 464.692,118.417 465.526,118.417 C466.388,118.417 467.005,117.827 467.005,116.995 C467.005,116.694 466.957,116.425 466.818,116.034 L462.94,105.278 C462.519,104.096 461.833,103.576 460.677,103.576 C459.561,103.576 458.866,104.116 458.456,105.287 L454.598,116.031 C454.47,116.403 454.402,116.742 454.402,116.993 C454.402,117.863 454.981,118.415 455.899,118.415 Z M458.788,112.461 L460.62,106.543 L460.689,106.543 L462.56,112.461 L458.791,112.461 Z M471.743,118.419 C472.672,118.419 473.221,117.838 473.221,116.847 L473.221,106.283 L476.149,106.283 C476.942,106.283 477.48,105.812 477.48,105.032 C477.48,104.251 476.952,103.781 476.149,103.781 L467.347,103.781 C466.534,103.781 466.005,104.253 466.005,105.032 C466.005,105.814 466.543,106.283 467.347,106.283 L470.266,106.283 L470.266,116.847 C470.266,117.838 470.815,118.419 471.745,118.419 Z M442.993,118.23 L446.91,118.23 C451.15,118.23 453.648,115.537 453.648,110.95 C453.648,106.363 451.15,103.781 446.91,103.781 L442.993,103.781 C442.063,103.781 441.514,104.362 441.514,105.354 L441.514,116.649 C441.514,117.649 442.063,118.23 442.993,118.23 Z M444.472,115.726 L444.472,106.274 L446.557,106.274 C449.161,106.274 450.631,107.935 450.631,110.961 C450.631,114.085 449.202,115.728 446.557,115.728 L444.472,115.728 Z M480.429,118.23 L487.146,118.23 C487.96,118.23 488.488,117.758 488.488,116.979 C488.488,116.198 487.951,115.728 487.146,115.728 L481.908,115.728 L481.908,112.082 L486.891,112.082 C487.636,112.082 488.124,111.643 488.124,110.92 C488.124,110.2 487.625,109.758 486.891,109.758 L481.908,109.758 L481.908,106.283 L487.146,106.283 C487.948,106.283 488.488,105.812 488.488,105.032 C488.488,104.251 487.96,103.781 487.146,103.781 L480.429,103.781 C479.499,103.781 478.95,104.362 478.95,105.354 L478.95,116.649 C478.95,117.649 479.499,118.23 480.429,118.23 Z" />
        </g>
        <g id="Black-S">
            <path d="M665,76 C684.316,76 700,91.684 700,111 C700,130.316 684.316,146 665,146 C645.684,146 630,130.316 630,111 C630,91.684 645.684,76 665,76 Z M655.899,118.419 C656.683,118.419 657.123,118.018 657.396,117.057 L658.141,114.803 L663.243,114.803 L663.988,117.086 C664.253,118.027 664.692,118.417 665.526,118.417 C666.388,118.417 667.005,117.827 667.005,116.995 C667.005,116.694 666.957,116.425 666.818,116.034 L662.94,105.278 C662.519,104.096 661.833,103.576 660.677,103.576 C659.561,103.576 658.866,104.116 658.456,105.287 L654.598,116.031 C654.47,116.403 654.402,116.742 654.402,116.993 C654.402,117.863 654.981,118.415 655.899,118.415 Z M658.788,112.461 L660.62,106.543 L660.689,106.543 L662.56,112.461 L658.791,112.461 Z M671.742,118.419 C672.672,118.419 673.221,117.838 673.221,116.847 L673.221,106.283 L676.149,106.283 C676.942,106.283 677.48,105.812 677.48,105.032 C677.48,104.251 676.951,103.781 676.149,103.781 L667.347,103.781 C666.534,103.781 666.005,104.253 666.005,105.032 C666.005,105.814 666.543,106.283 667.347,106.283 L670.266,106.283 L670.266,116.847 C670.266,117.838 670.815,118.419 671.745,118.419 Z M642.993,118.23 L646.91,118.23 C651.15,118.23 653.648,115.537 653.648,110.95 C653.648,106.363 651.15,103.781 646.91,103.781 L642.993,103.781 C642.063,103.781 641.514,104.362 641.514,105.354 L641.514,116.649 C641.514,117.649 642.063,118.23 642.993,118.23 Z M644.472,115.726 L644.472,106.274 L646.557,106.274 C649.161,106.274 650.631,107.935 650.631,110.961 C650.631,114.085 649.202,115.728 646.557,115.728 L644.472,115.728 Z M680.429,118.23 L687.146,118.23 C687.96,118.23 688.488,117.758 688.488,116.979 C688.488,116.198 687.951,115.728 687.146,115.728 L681.908,115.728 L681.908,112.082 L686.891,112.082 C687.636,112.082 688.124,111.643 688.124,110.92 C688.124,110.2 687.625,109.758 686.891,109.758 L681.908,109.758 L681.908,106.283 L687.146,106.283 C687.948,106.283 688.488,105.812 688.488,105.032 C688.488,104.251 687.96,103.781 687.146,103.781 L680.429,103.781 C679.499,103.781 678.95,104.362 678.95,105.354 L678.95,116.649 C678.95,117.649 679.499,118.23 680.429,118.23 Z" />
        </g>
    </g>
</svg>