<?xml version="1.0" encoding="UTF-8" standalone="no"?><!DOCTYPE svg PUBLIC "-//W3C//DTD SVG 1.1//EN" "http://www.w3.org/Graphics/SVG/1.1/DTD/svg11.dtd"><svg width="100%" height="100%" viewBox="0 0 31 31" version="1.1" xmlns="http://www.w3.org/2000/svg" xmlns:xlink="http://www.w3.org/1999/xlink" xml:space="preserve" xmlns:serif="http://www.serif.com/" style="fill-rule:evenodd;clip-rule:evenodd;stroke-linejoin:round;stroke-miterlimit:2;"><g id="txt"><path d="M15.36,0c8.477,0 15.36,6.883 15.36,15.36c0,8.477 -6.883,15.36 -15.36,15.36c-8.477,0 -15.36,-6.883 -15.36,-15.36c0,-8.477 6.883,-15.36 15.36,-15.36Zm2.116,18.638c1.835,0 2.991,-1.257 2.991,-3.274c0,-2.021 -1.156,-3.283 -2.991,-3.283c-1.839,0 -2.991,1.261 -2.991,3.283c0,2.017 1.152,3.274 2.991,3.274Zm0,-1.107c-1.018,0 -1.667,-0.839 -1.667,-2.167c0,-1.332 0.653,-2.175 1.667,-2.175c1.014,0 1.663,0.844 1.663,2.175c0,1.327 -0.649,2.167 -1.663,2.167Zm4.473,1.002l2.097,0c1.324,0 2.144,-0.699 2.144,-1.815c0,-0.839 -0.619,-1.468 -1.461,-1.534l0,-0.035c0.657,-0.101 1.165,-0.681 1.165,-1.375c0,-0.971 -0.731,-1.582 -1.895,-1.582l-2.05,0c-0.408,0 -0.649,0.255 -0.649,0.69l0,4.957c0,0.439 0.241,0.694 0.649,0.694Zm0.649,-0.989l0,-1.841l1.087,0c0.765,0 1.182,0.316 1.182,0.91c0,0.606 -0.404,0.932 -1.152,0.932l-1.117,0Zm0,-2.716l0,-1.648l1.066,0c0.606,0 0.954,0.29 0.954,0.8c0,0.536 -0.395,0.848 -1.087,0.848l-0.933,0Zm-11.792,3.705l2.849,0c0.357,0 0.589,-0.207 0.589,-0.549c0,-0.343 -0.236,-0.549 -0.589,-0.549l-2.2,0l0,-4.636c0,-0.439 -0.241,-0.694 -0.649,-0.694c-0.408,0 -0.649,0.255 -0.649,0.694l0,5.041c0,0.439 0.241,0.694 0.649,0.694Zm-5.629,0l2.097,0c1.324,0 2.144,-0.699 2.144,-1.815c0,-0.839 -0.619,-1.468 -1.461,-1.534l0,-0.035c0.657,-0.101 1.165,-0.681 1.165,-1.375c0,-0.971 -0.731,-1.582 -1.895,-1.582l-2.05,0c-0.408,0 -0.649,0.255 -0.649,0.69l0,4.957c0,0.439 0.241,0.694 0.649,0.694Zm0.649,-3.705l0,-1.648l1.066,0c0.606,0 0.954,0.29 0.954,0.8c0,0.536 -0.395,0.848 -1.087,0.848l-0.933,0Zm0,2.716l0,-1.841l1.087,0c0.765,0 1.182,0.316 1.182,0.91c0,0.606 -0.404,0.932 -1.152,0.932l-1.117,0Z" style="fill:#999;"/></g></svg>