<?xml version="1.0" encoding="UTF-8" standalone="no"?><!DOCTYPE svg PUBLIC "-//W3C//DTD SVG 1.1//EN" "http://www.w3.org/Graphics/SVG/1.1/DTD/svg11.dtd"><svg width="100%" height="100%" viewBox="0 0 31 31" version="1.1" xmlns="http://www.w3.org/2000/svg" xmlns:xlink="http://www.w3.org/1999/xlink" xml:space="preserve" xmlns:serif="http://www.serif.com/" style="fill-rule:evenodd;clip-rule:evenodd;stroke-linejoin:round;stroke-miterlimit:2;"><g id="date"><path d="M15.36,0c8.477,0 15.36,6.883 15.36,15.36c0,8.477 -6.883,15.36 -15.36,15.36c-8.477,0 -15.36,-6.883 -15.36,-15.36c0,-8.477 6.883,-15.36 15.36,-15.36Zm-3.994,18.616c0.344,0 0.537,-0.176 0.657,-0.598l0.327,-0.989l2.239,0l0.327,1.002c0.116,0.413 0.309,0.584 0.675,0.584c0.378,0 0.649,-0.259 0.649,-0.624c0,-0.132 -0.021,-0.25 -0.082,-0.422l-1.702,-4.72c-0.185,-0.519 -0.486,-0.747 -0.993,-0.747c-0.49,0 -0.795,0.237 -0.975,0.751l-1.693,4.715c-0.056,0.163 -0.086,0.312 -0.086,0.422c0,0.382 0.254,0.624 0.657,0.624Zm1.268,-2.615l0.804,-2.597l0.03,0l0.821,2.597l-1.654,0Zm5.685,2.615c0.408,0 0.649,-0.255 0.649,-0.69l0,-4.636l1.285,0c0.348,0 0.584,-0.207 0.584,-0.549c0,-0.343 -0.232,-0.549 -0.584,-0.549l-3.863,0c-0.357,0 -0.589,0.207 -0.589,0.549c0,0.343 0.236,0.549 0.589,0.549l1.281,0l0,4.636c0,0.435 0.241,0.69 0.649,0.69Zm-12.617,-0.083l1.719,0c1.861,0 2.957,-1.182 2.957,-3.195c0,-2.013 -1.096,-3.146 -2.957,-3.146l-1.719,0c-0.408,0 -0.649,0.255 -0.649,0.69l0,4.957c0,0.439 0.241,0.694 0.649,0.694Zm0.649,-1.099l0,-4.148l0.915,0c1.143,0 1.788,0.729 1.788,2.057c0,1.371 -0.627,2.092 -1.788,2.092l-0.915,0Zm15.78,1.099l2.948,0c0.357,0 0.589,-0.207 0.589,-0.549c0,-0.343 -0.236,-0.549 -0.589,-0.549l-2.299,0l0,-1.6l2.187,0c0.327,0 0.541,-0.193 0.541,-0.51c0,-0.316 -0.219,-0.51 -0.541,-0.51l-2.187,0l0,-1.525l2.299,0c0.352,0 0.589,-0.207 0.589,-0.549c0,-0.343 -0.232,-0.549 -0.589,-0.549l-2.948,0c-0.408,0 -0.649,0.255 -0.649,0.69l0,4.957c0,0.439 0.241,0.694 0.649,0.694Z" style="fill:#999;"/></g></svg>