<?xml version="1.0" encoding="UTF-8" standalone="no"?><!DOCTYPE svg PUBLIC "-//W3C//DTD SVG 1.1//EN" "http://www.w3.org/Graphics/SVG/1.1/DTD/svg11.dtd"><svg width="100%" height="100%" viewBox="0 0 31 31" version="1.1" xmlns="http://www.w3.org/2000/svg" xmlns:xlink="http://www.w3.org/1999/xlink" xml:space="preserve" xmlns:serif="http://www.serif.com/" style="fill-rule:evenodd;clip-rule:evenodd;stroke-linejoin:round;stroke-miterlimit:2;"><g id="unknown"><path d="M15.36,0c8.477,0 15.36,6.883 15.36,15.36c0,8.477 -6.883,15.36 -15.36,15.36c-8.477,0 -15.36,-6.883 -15.36,-15.36c0,-8.477 6.883,-15.36 15.36,-15.36Zm-6.529,17.13c0.407,0 0.63,-0.229 0.716,-0.621c0.074,-0.492 0.246,-0.744 1.008,-1.195c0.808,-0.486 1.226,-1.09 1.226,-1.975c0,-1.365 -1.094,-2.279 -2.722,-2.279c-1.232,0 -2.149,0.498 -2.515,1.271c-0.115,0.223 -0.172,0.445 -0.172,0.697c0,0.445 0.281,0.732 0.733,0.732c0.35,0 0.607,-0.164 0.751,-0.539c0.183,-0.521 0.562,-0.803 1.123,-0.803c0.63,0 1.066,0.398 1.066,0.973c0,0.539 -0.223,0.832 -0.963,1.283c-0.676,0.404 -1.026,0.861 -1.026,1.553l0,0.082c0,0.48 0.286,0.82 0.774,0.82Zm0.011,2.607c0.521,0 0.94,-0.404 0.94,-0.92c0,-0.516 -0.418,-0.92 -0.94,-0.92c-0.516,0 -0.934,0.404 -0.934,0.92c0,0.516 0.418,0.92 0.934,0.92Zm6.251,-2.607c0.407,0 0.63,-0.229 0.716,-0.621c0.074,-0.492 0.246,-0.744 1.008,-1.195c0.808,-0.486 1.226,-1.09 1.226,-1.975c0,-1.365 -1.094,-2.279 -2.722,-2.279c-1.232,0 -2.149,0.498 -2.515,1.271c-0.115,0.223 -0.172,0.445 -0.172,0.697c0,0.445 0.281,0.732 0.733,0.732c0.35,0 0.607,-0.164 0.751,-0.539c0.183,-0.521 0.562,-0.803 1.123,-0.803c0.63,0 1.066,0.398 1.066,0.973c0,0.539 -0.223,0.832 -0.963,1.283c-0.676,0.404 -1.026,0.861 -1.026,1.553l0,0.082c0,0.48 0.286,0.82 0.774,0.82Zm0.011,2.607c0.521,0 0.94,-0.404 0.94,-0.92c0,-0.516 -0.418,-0.92 -0.94,-0.92c-0.516,0 -0.934,0.404 -0.934,0.92c0,0.516 0.418,0.92 0.934,0.92Zm6.251,-2.607c0.407,0 0.63,-0.229 0.716,-0.621c0.074,-0.492 0.246,-0.744 1.008,-1.195c0.808,-0.486 1.226,-1.09 1.226,-1.975c0,-1.365 -1.094,-2.279 -2.722,-2.279c-1.232,0 -2.149,0.498 -2.515,1.271c-0.115,0.223 -0.172,0.445 -0.172,0.697c0,0.445 0.281,0.732 0.733,0.732c0.35,0 0.607,-0.164 0.751,-0.539c0.183,-0.521 0.562,-0.803 1.123,-0.803c0.63,0 1.066,0.398 1.066,0.973c0,0.539 -0.223,0.832 -0.963,1.283c-0.676,0.404 -1.026,0.861 -1.026,1.553l0,0.082c0,0.48 0.286,0.82 0.774,0.82Zm0.011,2.607c0.521,0 0.94,-0.404 0.94,-0.92c0,-0.516 -0.418,-0.92 -0.94,-0.92c-0.516,0 -0.934,0.404 -0.934,0.92c0,0.516 0.418,0.92 0.934,0.92Z" style="fill:#999;"/></g></svg>