<?xml version="1.0" encoding="UTF-8" standalone="no"?><!DOCTYPE svg PUBLIC "-//W3C//DTD SVG 1.1//EN" "http://www.w3.org/Graphics/SVG/1.1/DTD/svg11.dtd"><svg width="100%" height="100%" viewBox="0 0 31 31" version="1.1" xmlns="http://www.w3.org/2000/svg" xmlns:xlink="http://www.w3.org/1999/xlink" xml:space="preserve" xmlns:serif="http://www.serif.com/" style="fill-rule:evenodd;clip-rule:evenodd;stroke-linejoin:round;stroke-miterlimit:2;"><g id="txt"><path d="M15.36,0c8.477,0 15.36,6.883 15.36,15.36c0,8.477 -6.883,15.36 -15.36,15.36c-8.477,0 -15.36,-6.883 -15.36,-15.36c0,-8.477 6.883,-15.36 15.36,-15.36Zm-3.094,19.59l3.799,0c0.476,0 0.785,-0.275 0.785,-0.732c0,-0.457 -0.315,-0.732 -0.785,-0.732l-2.934,0l0,-6.182c0,-0.586 -0.321,-0.926 -0.865,-0.926c-0.544,0 -0.865,0.34 -0.865,0.926l0,6.721c0,0.586 0.321,0.926 0.865,0.926Zm-6.434,0.111c0.544,0 0.865,-0.34 0.865,-0.92l0,-2.52l2.722,0c0.453,0 0.739,-0.264 0.739,-0.703c0,-0.434 -0.292,-0.697 -0.739,-0.697l-2.722,0l0,-2.262l3.002,0c0.47,0 0.785,-0.275 0.785,-0.732c0,-0.457 -0.309,-0.732 -0.785,-0.732l-3.868,0c-0.544,0 -0.865,0.34 -0.865,0.92l0,6.727c0,0.58 0.321,0.92 0.865,0.92Zm15.327,0.029c2.447,0 3.988,-1.676 3.988,-4.365c0,-2.695 -1.541,-4.377 -3.988,-4.377c-2.452,0 -3.988,1.682 -3.988,4.377c0,2.689 1.536,4.365 3.988,4.365Zm0,-1.477c-1.358,0 -2.223,-1.119 -2.223,-2.889c0,-1.775 0.871,-2.9 2.223,-2.9c1.352,0 2.217,1.125 2.217,2.9c0,1.77 -0.865,2.889 -2.217,2.889Z" style="fill:#999;"/></g></svg>