<?xml version="1.0" encoding="UTF-8"?>
<svg height="600" width="800" xmlns="http://www.w3.org/2000/svg" xmlns:xlink="http://www.w3.org/1999/xlink">
    <g id="Notes" font-family="'LucidaGrande', 'Lucida Grande', sans-serif" font-size="13">
        <rect fill="white" height="600.0" width="800.0" x="0.0" y="0.0" />
        <g font-size="13">
            <text x="18.0" y="176.0">Small</text>
            <text x="18.0" y="376.0">Medium</text>
            <text x="18.0" y="576.0">Large</text>
        </g>
        <g font-size="9">
            <text x="250.0" y="30.0">Ultralight</text>
            <text x="450.0" y="30.0">Regular</text>
            <text x="650.0" y="30.0">Black</text>
            <text id="template-version" fill="#505050" text-anchor="end" x="785.0" y="575.0">Template v.3.0</text>
            <a href="https://wangchujiang.com/#/app">
                <text fill="#505050" text-anchor="end" x="785.0" y="590.0">https://wangchujiang.com/#/app</text>
            </a>
        </g>
    </g>
    <g id="Guides" stroke="rgb(39, 170, 225)" stroke-width="0.5">
        <path id="Capline-S" d="M18,76 l800,0" />
        <path id="H-reference" d="M85,145.755 L87.685,145.755 L113.369,79.287 L114.052,79.287 L114.052,76 L112.148,76 L85,145.755 Z M95.693,121.536 L130.996,121.536 L130.263,119.313 L96.474,119.313 L95.693,121.536 Z M139.15,145.755 L141.787,145.755 L114.638,76 L113.466,76 L113.466,79.287 L139.15,145.755 Z" stroke="none" />
        <path id="Baseline-S" d="M18,146 l800,0" />
        <path id="left-margin-Ultralight-S" d="M220,56 l0,110" />
        <path id="right-margin-Ultralight-S" d="M310,56 l0,110" />
        <path id="left-margin-Regular-S" d="M420,56 l0,110" />
        <path id="right-margin-Regular-S" d="M510,56 l0,110" />
        <path id="left-margin-Black-S" d="M620,56 l0,110" />
        <path id="right-margin-Black-S" d="M710,56 l0,110" />
        <path id="Capline-M" d="M18,276 l800,0" />
        <path id="Baseline-M" d="M18,346 l800,0" />
        <path id="Capline-L" d="M18,476 l800,0" />
        <path id="Baseline-L" d="M18,546 l800,0" />
    </g>
    <g id="Symbols">
        <g id="Ultralight-S">
            <path d="M265,76 C284.316,76 300,91.684 300,111 C300,130.316 284.316,146 265,146 C245.684,146 230,130.316 230,111 C230,91.684 245.684,76 265,76 Z M257.95,120.639 L266.606,120.639 C267.691,120.639 268.395,120.012 268.395,118.971 C268.395,117.929 267.677,117.303 266.606,117.303 L259.921,117.303 L259.921,103.216 C259.921,101.881 259.189,101.106 257.95,101.106 C256.71,101.106 255.979,101.881 255.979,103.216 L255.979,118.531 C255.979,119.866 256.71,120.641 257.95,120.641 Z M243.289,120.892 C244.529,120.892 245.26,120.117 245.26,118.795 L245.26,113.053 L251.463,113.053 C252.495,113.053 253.146,112.451 253.146,111.451 C253.146,110.462 252.481,109.863 251.463,109.863 L245.26,109.863 L245.26,104.709 L252.101,104.709 C253.172,104.709 253.889,104.082 253.889,103.041 C253.889,101.999 253.185,101.373 252.101,101.373 L243.287,101.373 C242.047,101.373 241.316,102.147 241.316,103.469 L241.316,118.798 C241.316,120.119 242.047,120.894 243.287,120.894 Z M278.214,120.958 C283.79,120.958 287.301,117.139 287.301,111.011 C287.301,104.87 283.79,101.038 278.214,101.038 C272.627,101.038 269.127,104.87 269.127,111.011 C269.127,117.139 272.627,120.958 278.214,120.958 Z M278.214,117.592 C275.119,117.592 273.148,115.042 273.148,111.009 C273.148,106.965 275.133,104.401 278.214,104.401 C281.295,104.401 283.266,106.965 283.266,111.009 C283.266,115.042 281.295,117.592 278.214,117.592 Z" />
        </g>
        <g id="Regular-S">
            <path d="M465,76 C484.316,76 500,91.684 500,111 C500,130.316 484.316,146 465,146 C445.684,146 430,130.316 430,111 C430,91.684 445.684,76 465,76 Z M457.95,120.639 L466.606,120.639 C467.691,120.639 468.395,120.012 468.395,118.971 C468.395,117.929 467.677,117.303 466.606,117.303 L459.921,117.303 L459.921,103.216 C459.921,101.881 459.189,101.106 457.95,101.106 C456.71,101.106 455.979,101.881 455.979,103.216 L455.979,118.531 C455.979,119.866 456.71,120.641 457.95,120.641 Z M443.289,120.892 C444.529,120.892 445.26,120.117 445.26,118.795 L445.26,113.053 L451.463,113.053 C452.495,113.053 453.146,112.451 453.146,111.451 C453.146,110.462 452.481,109.863 451.463,109.863 L445.26,109.863 L445.26,104.709 L452.101,104.709 C453.172,104.709 453.889,104.082 453.889,103.041 C453.889,101.999 453.185,101.373 452.101,101.373 L443.287,101.373 C442.047,101.373 441.316,102.147 441.316,103.469 L441.316,118.798 C441.316,120.119 442.047,120.894 443.287,120.894 Z M478.214,120.958 C483.79,120.958 487.301,117.139 487.301,111.011 C487.301,104.87 483.79,101.038 478.214,101.038 C472.627,101.038 469.127,104.87 469.127,111.011 C469.127,117.139 472.627,120.958 478.214,120.958 Z M478.214,117.592 C475.119,117.592 473.148,115.042 473.148,111.009 C473.148,106.965 475.133,104.401 478.214,104.401 C481.295,104.401 483.266,106.965 483.266,111.009 C483.266,115.042 481.295,117.592 478.214,117.592 Z" />
        </g>
        <g id="Black-S">
            <path d="M665,76 C684.316,76 700,91.684 700,111 C700,130.316 684.316,146 665,146 C645.684,146 630,130.316 630,111 C630,91.684 645.684,76 665,76 Z M657.95,120.639 L666.606,120.639 C667.691,120.639 668.395,120.012 668.395,118.971 C668.395,117.929 667.677,117.303 666.606,117.303 L659.921,117.303 L659.921,103.216 C659.921,101.881 659.189,101.106 657.95,101.106 C656.71,101.106 655.979,101.881 655.979,103.216 L655.979,118.531 C655.979,119.866 656.71,120.641 657.95,120.641 Z M643.289,120.892 C644.529,120.892 645.26,120.117 645.26,118.795 L645.26,113.053 L651.463,113.053 C652.495,113.053 653.146,112.451 653.146,111.451 C653.146,110.462 652.481,109.863 651.463,109.863 L645.26,109.863 L645.26,104.709 L652.101,104.709 C653.172,104.709 653.889,104.082 653.889,103.041 C653.889,101.999 653.185,101.373 652.101,101.373 L643.287,101.373 C642.047,101.373 641.316,102.147 641.316,103.469 L641.316,118.798 C641.316,120.119 642.047,120.894 643.287,120.894 Z M678.214,120.958 C683.79,120.958 687.301,117.139 687.301,111.011 C687.301,104.87 683.79,101.038 678.214,101.038 C672.627,101.038 669.127,104.87 669.127,111.011 C669.127,117.139 672.627,120.958 678.214,120.958 Z M678.214,117.592 C675.119,117.592 673.148,115.042 673.148,111.009 C673.148,106.965 675.133,104.401 678.214,104.401 C681.295,104.401 683.266,106.965 683.266,111.009 C683.266,115.042 681.295,117.592 678.214,117.592 Z" />
        </g>
    </g>
</svg>