<?xml version="1.0" encoding="UTF-8"?>
<svg height="600" width="800" xmlns="http://www.w3.org/2000/svg" xmlns:xlink="http://www.w3.org/1999/xlink">
    <g id="Notes" font-family="'LucidaGrande', 'Lucida Grande', sans-serif" font-size="13">
        <rect fill="white" height="600.0" width="800.0" x="0.0" y="0.0" />
        <g font-size="13">
            <text x="18.0" y="176.0">Small</text>
            <text x="18.0" y="376.0">Medium</text>
            <text x="18.0" y="576.0">Large</text>
        </g>
        <g font-size="9">
            <text x="250.0" y="30.0">Ultralight</text>
            <text x="450.0" y="30.0">Regular</text>
            <text x="650.0" y="30.0">Black</text>
            <text id="template-version" fill="#505050" text-anchor="end" x="785.0" y="575.0">Template v.3.0</text>
            <a href="https://wangchujiang.com/#/app">
                <text fill="#505050" text-anchor="end" x="785.0" y="590.0">https://wangchujiang.com/#/app</text>
            </a>
        </g>
    </g>
    <g id="Guides" stroke="rgb(39, 170, 225)" stroke-width="0.5">
        <path id="Capline-S" d="M18,76 l800,0" />
        <path id="H-reference" d="M85,145.755 L87.685,145.755 L113.369,79.287 L114.052,79.287 L114.052,76 L112.148,76 L85,145.755 Z M95.693,121.536 L130.996,121.536 L130.263,119.313 L96.474,119.313 L95.693,121.536 Z M139.15,145.755 L141.787,145.755 L114.638,76 L113.466,76 L113.466,79.287 L139.15,145.755 Z" stroke="none" />
        <path id="Baseline-S" d="M18,146 l800,0" />
        <path id="left-margin-Ultralight-S" d="M220,56 l0,110" />
        <path id="right-margin-Ultralight-S" d="M310,56 l0,110" />
        <path id="left-margin-Regular-S" d="M420,56 l0,110" />
        <path id="right-margin-Regular-S" d="M510,56 l0,110" />
        <path id="left-margin-Black-S" d="M620,56 l0,110" />
        <path id="right-margin-Black-S" d="M710,56 l0,110" />
        <path id="Capline-M" d="M18,276 l800,0" />
        <path id="Baseline-M" d="M18,346 l800,0" />
        <path id="Capline-L" d="M18,476 l800,0" />
        <path id="Baseline-L" d="M18,546 l800,0" />
    </g>
    <g id="Symbols">
        <g id="Ultralight-S">
            <path d="M265,76 C284.316,76 300,91.684 300,111 C300,130.316 284.316,146 265,146 C245.684,146 230,130.316 230,111 C230,91.684 245.684,76 265,76 Z M247.792,120.894 C249.031,120.894 249.763,120.119 249.763,118.798 L249.763,104.711 L253.666,104.711 C254.723,104.711 255.441,104.084 255.441,103.043 C255.441,102.002 254.737,101.375 253.666,101.375 L241.929,101.375 C240.844,101.375 240.14,102.002 240.14,103.043 C240.14,104.084 240.858,104.711 241.929,104.711 L245.818,104.711 L245.818,118.798 C245.818,120.119 246.55,120.894 247.789,120.894 Z M259.007,120.894 C259.752,120.894 260.169,120.641 260.666,119.905 L264.804,113.896 L264.909,113.896 L269.113,119.891 C269.621,120.6 270.104,120.892 270.824,120.892 C271.92,120.892 272.718,120.131 272.718,119.076 C272.718,118.542 272.561,118.087 272.196,117.606 L267.443,111.05 L267.443,110.957 L272.34,104.267 C272.718,103.772 272.861,103.346 272.861,102.824 C272.861,101.863 271.973,101.102 270.943,101.102 C270.186,101.102 269.794,101.396 269.336,102.09 L265.171,108.311 L265.066,108.311 L261.033,102.223 C260.525,101.434 260.001,101.102 259.258,101.102 C258.109,101.102 257.259,101.904 257.259,102.997 C257.259,103.519 257.403,103.959 257.834,104.547 L262.377,110.875 L262.377,110.982 L257.676,117.683 C257.298,118.216 257.141,118.645 257.141,119.139 C257.141,120.115 257.964,120.889 259.007,120.889 Z M282.208,120.894 C283.448,120.894 284.179,120.119 284.179,118.798 L284.179,104.711 L288.083,104.711 C289.14,104.711 289.858,104.084 289.858,103.043 C289.858,102.002 289.154,101.375 288.083,101.375 L276.345,101.375 C275.261,101.375 274.557,102.002 274.557,103.043 C274.557,104.084 275.274,104.711 276.345,104.711 L280.235,104.711 L280.235,118.798 C280.235,120.119 280.966,120.894 282.206,120.894 Z" />
        </g>
        <g id="Regular-S">
            <path d="M465,76 C484.316,76 500,91.684 500,111 C500,130.316 484.316,146 465,146 C445.684,146 430,130.316 430,111 C430,91.684 445.684,76 465,76 Z M447.792,120.894 C449.031,120.894 449.763,120.119 449.763,118.798 L449.763,104.711 L453.666,104.711 C454.723,104.711 455.441,104.084 455.441,103.043 C455.441,102.002 454.737,101.375 453.666,101.375 L441.929,101.375 C440.844,101.375 440.14,102.002 440.14,103.043 C440.14,104.084 440.858,104.711 441.929,104.711 L445.818,104.711 L445.818,118.798 C445.818,120.119 446.55,120.894 447.789,120.894 Z M459.007,120.894 C459.752,120.894 460.169,120.641 460.666,119.905 L464.804,113.896 L464.909,113.896 L469.113,119.891 C469.621,120.6 470.104,120.892 470.824,120.892 C471.92,120.892 472.718,120.131 472.718,119.076 C472.718,118.542 472.561,118.087 472.196,117.606 L467.443,111.05 L467.443,110.957 L472.34,104.267 C472.718,103.772 472.861,103.346 472.861,102.824 C472.861,101.863 471.973,101.102 470.943,101.102 C470.186,101.102 469.794,101.396 469.336,102.09 L465.171,108.311 L465.066,108.311 L461.033,102.223 C460.525,101.434 460.001,101.102 459.258,101.102 C458.109,101.102 457.259,101.904 457.259,102.997 C457.259,103.519 457.403,103.959 457.834,104.547 L462.377,110.875 L462.377,110.982 L457.676,117.683 C457.298,118.216 457.141,118.645 457.141,119.139 C457.141,120.115 457.964,120.889 459.007,120.889 Z M482.208,120.894 C483.448,120.894 484.179,120.119 484.179,118.798 L484.179,104.711 L488.083,104.711 C489.14,104.711 489.858,104.084 489.858,103.043 C489.858,102.002 489.154,101.375 488.083,101.375 L476.345,101.375 C475.261,101.375 474.557,102.002 474.557,103.043 C474.557,104.084 475.274,104.711 476.345,104.711 L480.235,104.711 L480.235,118.798 C480.235,120.119 480.966,120.894 482.206,120.894 Z" />
        </g>
        <g id="Black-S">
            <path d="M665,76 C684.316,76 700,91.684 700,111 C700,130.316 684.316,146 665,146 C645.684,146 630,130.316 630,111 C630,91.684 645.684,76 665,76 Z M647.792,120.894 C649.031,120.894 649.763,120.119 649.763,118.798 L649.763,104.711 L653.666,104.711 C654.723,104.711 655.441,104.084 655.441,103.043 C655.441,102.002 654.737,101.375 653.666,101.375 L641.929,101.375 C640.844,101.375 640.14,102.002 640.14,103.043 C640.14,104.084 640.858,104.711 641.929,104.711 L645.818,104.711 L645.818,118.798 C645.818,120.119 646.55,120.894 647.789,120.894 Z M659.007,120.894 C659.752,120.894 660.169,120.641 660.666,119.905 L664.804,113.896 L664.909,113.896 L669.113,119.891 C669.621,120.6 670.104,120.892 670.824,120.892 C671.92,120.892 672.718,120.131 672.718,119.076 C672.718,118.542 672.561,118.087 672.196,117.606 L667.443,111.05 L667.443,110.957 L672.34,104.267 C672.718,103.772 672.861,103.346 672.861,102.824 C672.861,101.863 671.973,101.102 670.943,101.102 C670.186,101.102 669.794,101.396 669.336,102.09 L665.171,108.311 L665.066,108.311 L661.033,102.223 C660.525,101.434 660.001,101.102 659.258,101.102 C658.109,101.102 657.259,101.904 657.259,102.997 C657.259,103.519 657.403,103.959 657.834,104.547 L662.377,110.875 L662.377,110.982 L657.676,117.683 C657.298,118.216 657.141,118.645 657.141,119.139 C657.141,120.115 657.964,120.889 659.007,120.889 Z M682.208,120.894 C683.448,120.894 684.179,120.119 684.179,118.798 L684.179,104.711 L688.083,104.711 C689.14,104.711 689.858,104.084 689.858,103.043 C689.858,102.002 689.154,101.375 688.083,101.375 L676.345,101.375 C675.261,101.375 674.557,102.002 674.557,103.043 C674.557,104.084 675.274,104.711 676.345,104.711 L680.235,104.711 L680.235,118.798 C680.235,120.119 680.966,120.894 682.206,120.894 Z" />
        </g>
    </g>
</svg>