<?xml version="1.0" encoding="UTF-8" standalone="no"?><!DOCTYPE svg PUBLIC "-//W3C//DTD SVG 1.1//EN" "http://www.w3.org/Graphics/SVG/1.1/DTD/svg11.dtd"><svg width="100%" height="100%" viewBox="0 0 31 31" version="1.1" xmlns="http://www.w3.org/2000/svg" xmlns:xlink="http://www.w3.org/1999/xlink" xml:space="preserve" xmlns:serif="http://www.serif.com/" style="fill-rule:evenodd;clip-rule:evenodd;stroke-linejoin:round;stroke-miterlimit:2;"><g id="txt"><path d="M15.36,0c8.477,0 15.36,6.883 15.36,15.36c0,8.477 -6.883,15.36 -15.36,15.36c-8.477,0 -15.36,-6.883 -15.36,-15.36c0,-8.477 6.883,-15.36 15.36,-15.36Zm-7.979,19.702c0.544,0 0.865,-0.34 0.865,-0.92l0,-6.838c0,-0.586 -0.321,-0.926 -0.865,-0.926c-0.544,0 -0.865,0.34 -0.865,0.926l0,6.838c0,0.58 0.321,0.92 0.865,0.92Zm3.071,0c0.516,0 0.825,-0.322 0.825,-0.885l0,-4.764l0.052,0l3.587,5.139c0.264,0.375 0.493,0.51 0.865,0.51c0.544,0 0.848,-0.311 0.848,-0.861l0,-6.932c0,-0.568 -0.304,-0.891 -0.825,-0.891c-0.521,0 -0.831,0.322 -0.831,0.891l0,4.734l-0.046,0l-3.575,-5.109c-0.264,-0.369 -0.504,-0.516 -0.859,-0.516c-0.55,0 -0.871,0.322 -0.871,0.885l0,6.914c0,0.562 0.309,0.885 0.831,0.885Zm10.394,0c0.544,0 0.865,-0.34 0.865,-0.92l0,-6.182l1.713,0c0.464,0 0.779,-0.275 0.779,-0.732c0,-0.457 -0.309,-0.732 -0.779,-0.732l-5.151,0c-0.476,0 -0.785,0.275 -0.785,0.732c0,0.457 0.315,0.732 0.785,0.732l1.707,0l0,6.182c0,0.58 0.321,0.92 0.865,0.92Z" style="fill:#999;"/></g></svg>