<?xml version="1.0" encoding="UTF-8" standalone="no"?><!DOCTYPE svg PUBLIC "-//W3C//DTD SVG 1.1//EN" "http://www.w3.org/Graphics/SVG/1.1/DTD/svg11.dtd"><svg width="100%" height="100%" viewBox="0 0 31 31" version="1.1" xmlns="http://www.w3.org/2000/svg" xmlns:xlink="http://www.w3.org/1999/xlink" xml:space="preserve" xmlns:serif="http://www.serif.com/" style="fill-rule:evenodd;clip-rule:evenodd;stroke-linejoin:round;stroke-miterlimit:2;"><g id="txt"><path d="M15.36,0c8.477,0 15.36,6.883 15.36,15.36c0,8.477 -6.883,15.36 -15.36,15.36c-8.477,0 -15.36,-6.883 -15.36,-15.36c0,-8.477 6.883,-15.36 15.36,-15.36Zm8.202,19.714c0.493,0 0.837,-0.305 0.837,-0.891l0,-6.92c0,-0.586 -0.344,-0.896 -0.837,-0.896c-0.487,0 -0.837,0.311 -0.837,0.896l0,6.92c0,0.586 0.35,0.891 0.837,0.891Zm-8.297,-0.006c0.928,0 1.536,-0.457 1.839,-1.248l0.034,0l0,0.387c0,0.568 0.327,0.867 0.808,0.867c0.481,0 0.808,-0.299 0.808,-0.867l0,-4.77c0,-0.586 -0.344,-0.896 -0.837,-0.896c-0.487,0 -0.837,0.311 -0.837,0.896l0,2.83c0,0.832 -0.464,1.377 -1.209,1.377c-0.739,0 -1.146,-0.445 -1.146,-1.283l0,-2.924c0,-0.586 -0.344,-0.896 -0.837,-0.896c-0.487,0 -0.837,0.311 -0.837,0.896l0,3.281c0,1.465 0.882,2.35 2.212,2.35Zm-8.108,0.006c0.493,0 0.837,-0.305 0.837,-0.891l0,-2.836c0,-0.814 0.476,-1.377 1.226,-1.377c0.751,0 1.129,0.469 1.129,1.289l0,2.924c0,0.586 0.344,0.891 0.837,0.891c0.487,0 0.837,-0.305 0.837,-0.891l0,-3.281c0,-1.471 -0.768,-2.35 -2.131,-2.35c-0.945,0 -1.564,0.428 -1.891,1.207l-0.034,0l0,-0.352c0,-0.539 -0.332,-0.867 -0.837,-0.867c-0.504,0 -0.808,0.328 -0.808,0.861l0,4.781c0,0.586 0.35,0.891 0.837,0.891Zm13.562,0c0.493,0 0.837,-0.305 0.837,-0.891l0,-6.92c0,-0.586 -0.344,-0.896 -0.837,-0.896c-0.487,0 -0.837,0.311 -0.837,0.896l0,6.92c0,0.586 0.35,0.891 0.837,0.891Z" style="fill:#999;"/></g></svg>