<?xml version="1.0" encoding="UTF-8"?>
<svg height="600" width="800" xmlns="http://www.w3.org/2000/svg" xmlns:xlink="http://www.w3.org/1999/xlink">
    <g id="Notes" font-family="'LucidaGrande', 'Lucida Grande', sans-serif" font-size="13">
        <rect fill="white" height="600.0" width="800.0" x="0.0" y="0.0" />
        <g font-size="13">
            <text x="18.0" y="176.0">Small</text>
            <text x="18.0" y="376.0">Medium</text>
            <text x="18.0" y="576.0">Large</text>
        </g>
        <g font-size="9">
            <text x="250.0" y="30.0">Ultralight</text>
            <text x="450.0" y="30.0">Regular</text>
            <text x="650.0" y="30.0">Black</text>
            <text id="template-version" fill="#505050" text-anchor="end" x="785.0" y="575.0">Template v.3.0</text>
            <a href="https://wangchujiang.com/#/app">
                <text fill="#505050" text-anchor="end" x="785.0" y="590.0">https://wangchujiang.com/#/app</text>
            </a>
        </g>
    </g>
    <g id="Guides" stroke="rgb(39, 170, 225)" stroke-width="0.5">
        <path id="Capline-S" d="M18,76 l800,0" />
        <path id="H-reference" d="M85,145.755 L87.685,145.755 L113.369,79.287 L114.052,79.287 L114.052,76 L112.148,76 L85,145.755 Z M95.693,121.536 L130.996,121.536 L130.263,119.313 L96.474,119.313 L95.693,121.536 Z M139.15,145.755 L141.787,145.755 L114.638,76 L113.466,76 L113.466,79.287 L139.15,145.755 Z" stroke="none" />
        <path id="Baseline-S" d="M18,146 l800,0" />
        <path id="left-margin-Ultralight-S" d="M220,56 l0,110" />
        <path id="right-margin-Ultralight-S" d="M310,56 l0,110" />
        <path id="left-margin-Regular-S" d="M420,56 l0,110" />
        <path id="right-margin-Regular-S" d="M510,56 l0,110" />
        <path id="left-margin-Black-S" d="M620,56 l0,110" />
        <path id="right-margin-Black-S" d="M710,56 l0,110" />
        <path id="Capline-M" d="M18,276 l800,0" />
        <path id="Baseline-M" d="M18,346 l800,0" />
        <path id="Capline-L" d="M18,476 l800,0" />
        <path id="Baseline-L" d="M18,546 l800,0" />
    </g>
    <g id="Symbols">
        <g id="Ultralight-S">
            <path d="M265,76 C284.316,76 300,91.684 300,111 C300,130.316 284.316,146 265,146 C245.684,146 230,130.316 230,111 C230,91.684 245.684,76 265,76 Z M250.123,115.033 C251.05,115.033 251.558,114.511 251.754,113.618 C251.923,112.497 252.315,111.923 254.051,110.895 C255.892,109.788 256.845,108.411 256.845,106.395 C256.845,103.285 254.352,101.202 250.642,101.202 C247.835,101.202 245.745,102.337 244.911,104.098 C244.649,104.606 244.52,105.112 244.52,105.686 C244.52,106.7 245.16,107.354 246.19,107.354 C246.987,107.354 247.573,106.98 247.901,106.126 C248.318,104.939 249.182,104.296 250.46,104.296 C251.896,104.296 252.889,105.203 252.889,106.513 C252.889,107.742 252.381,108.409 250.695,109.437 C249.154,110.357 248.357,111.399 248.357,112.976 L248.357,113.162 C248.357,114.256 249.008,115.031 250.12,115.031 Z M250.148,120.974 C251.335,120.974 252.29,120.053 252.29,118.877 C252.29,117.701 251.337,116.781 250.148,116.781 C248.972,116.781 248.02,117.701 248.02,118.877 C248.02,120.053 248.972,120.974 250.148,120.974 Z M264.392,115.033 C265.319,115.033 265.827,114.511 266.023,113.618 C266.192,112.497 266.584,111.923 268.32,110.895 C270.161,109.788 271.114,108.411 271.114,106.395 C271.114,103.285 268.621,101.202 264.911,101.202 C262.104,101.202 260.014,102.337 259.18,104.098 C258.918,104.606 258.788,105.112 258.788,105.686 C258.788,106.7 259.429,107.354 260.459,107.354 C261.256,107.354 261.842,106.98 262.17,106.126 C262.587,104.939 263.451,104.296 264.729,104.296 C266.164,104.296 267.158,105.203 267.158,106.513 C267.158,107.742 266.65,108.409 264.964,109.437 C263.423,110.357 262.626,111.399 262.626,112.976 L262.626,113.162 C262.626,114.256 263.277,115.031 264.389,115.031 Z M264.417,120.974 C265.604,120.974 266.559,120.053 266.559,118.877 C266.559,117.701 265.606,116.781 264.417,116.781 C263.241,116.781 262.288,117.701 262.288,118.877 C262.288,120.053 263.241,120.974 264.417,120.974 Z M278.66,115.033 C279.588,115.033 280.096,114.511 280.292,113.618 C280.461,112.497 280.853,111.923 282.589,110.895 C284.43,109.788 285.382,108.411 285.382,106.395 C285.382,103.285 282.89,101.202 279.18,101.202 C276.373,101.202 274.283,102.337 273.449,104.098 C273.187,104.606 273.057,105.112 273.057,105.686 C273.057,106.7 273.698,107.354 274.728,107.354 C275.525,107.354 276.111,106.98 276.439,106.126 C276.856,104.939 277.719,104.296 278.998,104.296 C280.433,104.296 281.427,105.203 281.427,106.513 C281.427,107.742 280.919,108.409 279.232,109.437 C277.692,110.357 276.895,111.399 276.895,112.976 L276.895,113.162 C276.895,114.256 277.546,115.031 278.658,115.031 Z M278.686,120.974 C279.873,120.974 280.827,120.053 280.827,118.877 C280.827,117.701 279.875,116.781 278.686,116.781 C277.51,116.781 276.557,117.701 276.557,118.877 C276.557,120.053 277.51,120.974 278.686,120.974 Z" />
        </g>
        <g id="Regular-S">
            <path d="M465,76 C484.316,76 500,91.684 500,111 C500,130.316 484.316,146 465,146 C445.684,146 430,130.316 430,111 C430,91.684 445.684,76 465,76 Z M450.123,115.033 C451.05,115.033 451.558,114.511 451.754,113.618 C451.923,112.497 452.315,111.923 454.051,110.895 C455.892,109.788 456.845,108.411 456.845,106.395 C456.845,103.285 454.352,101.202 450.642,101.202 C447.835,101.202 445.745,102.337 444.911,104.098 C444.649,104.606 444.52,105.112 444.52,105.686 C444.52,106.7 445.16,107.354 446.19,107.354 C446.987,107.354 447.573,106.98 447.901,106.126 C448.318,104.939 449.182,104.296 450.46,104.296 C451.896,104.296 452.889,105.203 452.889,106.513 C452.889,107.742 452.381,108.409 450.695,109.437 C449.154,110.357 448.357,111.399 448.357,112.976 L448.357,113.162 C448.357,114.256 449.008,115.031 450.12,115.031 Z M450.148,120.974 C451.335,120.974 452.29,120.053 452.29,118.877 C452.29,117.701 451.337,116.781 450.148,116.781 C448.972,116.781 448.02,117.701 448.02,118.877 C448.02,120.053 448.972,120.974 450.148,120.974 Z M464.392,115.033 C465.319,115.033 465.827,114.511 466.023,113.618 C466.192,112.497 466.584,111.923 468.32,110.895 C470.161,109.788 471.114,108.411 471.114,106.395 C471.114,103.285 468.621,101.202 464.911,101.202 C462.104,101.202 460.014,102.337 459.18,104.098 C458.918,104.606 458.788,105.112 458.788,105.686 C458.788,106.7 459.429,107.354 460.459,107.354 C461.256,107.354 461.842,106.98 462.17,106.126 C462.587,104.939 463.451,104.296 464.729,104.296 C466.164,104.296 467.158,105.203 467.158,106.513 C467.158,107.742 466.65,108.409 464.964,109.437 C463.423,110.357 462.626,111.399 462.626,112.976 L462.626,113.162 C462.626,114.256 463.277,115.031 464.389,115.031 Z M464.417,120.974 C465.604,120.974 466.559,120.053 466.559,118.877 C466.559,117.701 465.606,116.781 464.417,116.781 C463.241,116.781 462.288,117.701 462.288,118.877 C462.288,120.053 463.241,120.974 464.417,120.974 Z M478.66,115.033 C479.588,115.033 480.096,114.511 480.292,113.618 C480.461,112.497 480.853,111.923 482.589,110.895 C484.43,109.788 485.382,108.411 485.382,106.395 C485.382,103.285 482.89,101.202 479.18,101.202 C476.373,101.202 474.283,102.337 473.449,104.098 C473.187,104.606 473.057,105.112 473.057,105.686 C473.057,106.7 473.698,107.354 474.728,107.354 C475.525,107.354 476.111,106.98 476.439,106.126 C476.856,104.939 477.719,104.296 478.998,104.296 C480.433,104.296 481.427,105.203 481.427,106.513 C481.427,107.742 480.919,108.409 479.232,109.437 C477.692,110.357 476.895,111.399 476.895,112.976 L476.895,113.162 C476.895,114.256 477.546,115.031 478.658,115.031 Z M478.686,120.974 C479.873,120.974 480.827,120.053 480.827,118.877 C480.827,117.701 479.875,116.781 478.686,116.781 C477.51,116.781 476.557,117.701 476.557,118.877 C476.557,120.053 477.51,120.974 478.686,120.974 Z" />
        </g>
        <g id="Black-S">
            <path d="M665,76 C684.316,76 700,91.684 700,111 C700,130.316 684.316,146 665,146 C645.684,146 630,130.316 630,111 C630,91.684 645.684,76 665,76 Z M650.123,115.033 C651.05,115.033 651.558,114.511 651.754,113.618 C651.923,112.497 652.315,111.923 654.051,110.895 C655.892,109.788 656.845,108.411 656.845,106.395 C656.845,103.285 654.352,101.202 650.642,101.202 C647.835,101.202 645.745,102.337 644.911,104.098 C644.649,104.606 644.52,105.112 644.52,105.686 C644.52,106.7 645.16,107.354 646.19,107.354 C646.987,107.354 647.573,106.98 647.901,106.126 C648.318,104.939 649.182,104.296 650.46,104.296 C651.896,104.296 652.889,105.203 652.889,106.513 C652.889,107.742 652.381,108.409 650.695,109.437 C649.154,110.357 648.357,111.399 648.357,112.976 L648.357,113.162 C648.357,114.256 649.008,115.031 650.12,115.031 Z M650.148,120.974 C651.335,120.974 652.29,120.053 652.29,118.877 C652.29,117.701 651.337,116.781 650.148,116.781 C648.972,116.781 648.02,117.701 648.02,118.877 C648.02,120.053 648.972,120.974 650.148,120.974 Z M664.392,115.033 C665.319,115.033 665.827,114.511 666.023,113.618 C666.192,112.497 666.584,111.923 668.32,110.895 C670.161,109.788 671.114,108.411 671.114,106.395 C671.114,103.285 668.621,101.202 664.911,101.202 C662.104,101.202 660.014,102.337 659.18,104.098 C658.918,104.606 658.788,105.112 658.788,105.686 C658.788,106.7 659.429,107.354 660.459,107.354 C661.256,107.354 661.842,106.98 662.17,106.126 C662.587,104.939 663.451,104.296 664.729,104.296 C666.164,104.296 667.158,105.203 667.158,106.513 C667.158,107.742 666.65,108.409 664.964,109.437 C663.423,110.357 662.626,111.399 662.626,112.976 L662.626,113.162 C662.626,114.256 663.277,115.031 664.389,115.031 Z M664.417,120.974 C665.604,120.974 666.559,120.053 666.559,118.877 C666.559,117.701 665.606,116.781 664.417,116.781 C663.241,116.781 662.288,117.701 662.288,118.877 C662.288,120.053 663.241,120.974 664.417,120.974 Z M678.66,115.033 C679.588,115.033 680.096,114.511 680.292,113.618 C680.461,112.497 680.853,111.923 682.589,110.895 C684.43,109.788 685.383,108.411 685.383,106.395 C685.383,103.285 682.89,101.202 679.18,101.202 C676.373,101.202 674.283,102.337 673.449,104.098 C673.187,104.606 673.057,105.112 673.057,105.686 C673.057,106.7 673.698,107.354 674.728,107.354 C675.525,107.354 676.111,106.98 676.439,106.126 C676.856,104.939 677.719,104.296 678.998,104.296 C680.433,104.296 681.427,105.203 681.427,106.513 C681.427,107.742 680.919,108.409 679.232,109.437 C677.692,110.357 676.895,111.399 676.895,112.976 L676.895,113.162 C676.895,114.256 677.546,115.031 678.658,115.031 Z M678.686,120.974 C679.873,120.974 680.827,120.053 680.827,118.877 C680.827,117.701 679.875,116.781 678.686,116.781 C677.51,116.781 676.557,117.701 676.557,118.877 C676.557,120.053 677.51,120.974 678.686,120.974 Z" />
        </g>
    </g>
</svg>