<?xml version="1.0" encoding="UTF-8" standalone="no"?><!DOCTYPE svg PUBLIC "-//W3C//DTD SVG 1.1//EN" "http://www.w3.org/Graphics/SVG/1.1/DTD/svg11.dtd"><svg width="100%" height="100%" viewBox="0 0 31 31" version="1.1" xmlns="http://www.w3.org/2000/svg" xmlns:xlink="http://www.w3.org/1999/xlink" xml:space="preserve" xmlns:serif="http://www.serif.com/" style="fill-rule:evenodd;clip-rule:evenodd;stroke-linejoin:round;stroke-miterlimit:2;"><path d="M15.36,0c8.477,0 15.36,6.883 15.36,15.36c0,8.477 -6.883,15.36 -15.36,15.36c-8.477,0 -15.36,-6.883 -15.36,-15.36c0,-8.477 6.883,-15.36 15.36,-15.36Zm-7.552,19.702c0.544,0 0.865,-0.34 0.865,-0.92l0,-6.182l1.713,0c0.464,0 0.779,-0.275 0.779,-0.732c0,-0.457 -0.309,-0.732 -0.779,-0.732l-5.151,0c-0.476,0 -0.785,0.275 -0.785,0.732c0,0.457 0.315,0.732 0.785,0.732l1.707,0l0,6.182c0,0.58 0.321,0.92 0.865,0.92Zm4.922,0c0.327,0 0.51,-0.111 0.728,-0.434l1.816,-2.637l0.046,0l1.845,2.631c0.223,0.311 0.435,0.439 0.751,0.439c0.481,0 0.831,-0.334 0.831,-0.797c0,-0.234 -0.069,-0.434 -0.229,-0.645l-2.086,-2.877l0,-0.041l2.149,-2.936c0.166,-0.217 0.229,-0.404 0.229,-0.633c0,-0.422 -0.39,-0.756 -0.842,-0.756c-0.332,0 -0.504,0.129 -0.705,0.434l-1.828,2.73l-0.046,0l-1.77,-2.672c-0.223,-0.346 -0.453,-0.492 -0.779,-0.492c-0.504,0 -0.877,0.352 -0.877,0.832c0,0.229 0.063,0.422 0.252,0.68l1.994,2.777l0,0.047l-2.063,2.941c-0.166,0.234 -0.235,0.422 -0.235,0.639c0,0.428 0.361,0.768 0.819,0.768Zm10.182,0c0.544,0 0.865,-0.34 0.865,-0.92l0,-6.182l1.713,0c0.464,0 0.779,-0.275 0.779,-0.732c0,-0.457 -0.309,-0.732 -0.779,-0.732l-5.151,0c-0.476,0 -0.785,0.275 -0.785,0.732c0,0.457 0.315,0.732 0.785,0.732l1.707,0l0,6.182c0,0.58 0.321,0.92 0.865,0.92Z" style="fill:#999;"/></svg>