<?xml version="1.0" encoding="UTF-8"?>
<svg height="600" width="800" xmlns="http://www.w3.org/2000/svg" xmlns:xlink="http://www.w3.org/1999/xlink">
    <g id="Notes" font-family="'LucidaGrande', 'Lucida Grande', sans-serif" font-size="13">
        <rect fill="white" height="600.0" width="800.0" x="0.0" y="0.0" />
        <g font-size="13">
            <text x="18.0" y="176.0">Small</text>
            <text x="18.0" y="376.0">Medium</text>
            <text x="18.0" y="576.0">Large</text>
        </g>
        <g font-size="9">
            <text x="250.0" y="30.0">Ultralight</text>
            <text x="450.0" y="30.0">Regular</text>
            <text x="650.0" y="30.0">Black</text>
            <text id="template-version" fill="#505050" text-anchor="end" x="785.0" y="575.0">Template v.3.0</text>
            <a href="https://wangchujiang.com/#/app">
                <text fill="#505050" text-anchor="end" x="785.0" y="590.0">https://wangchujiang.com/#/app</text>
            </a>
        </g>
    </g>
    <g id="Guides" stroke="rgb(39, 170, 225)" stroke-width="0.5">
        <path id="Capline-S" d="M18,76 l800,0" />
        <path id="H-reference" d="M85,145.755 L87.685,145.755 L113.369,79.287 L114.052,79.287 L114.052,76 L112.148,76 L85,145.755 Z M95.693,121.536 L130.996,121.536 L130.263,119.313 L96.474,119.313 L95.693,121.536 Z M139.15,145.755 L141.787,145.755 L114.638,76 L113.466,76 L113.466,79.287 L139.15,145.755 Z" stroke="none" />
        <path id="Baseline-S" d="M18,146 l800,0" />
        <path id="left-margin-Ultralight-S" d="M220,56 l0,110" />
        <path id="right-margin-Ultralight-S" d="M310,56 l0,110" />
        <path id="left-margin-Regular-S" d="M420,56 l0,110" />
        <path id="right-margin-Regular-S" d="M510,56 l0,110" />
        <path id="left-margin-Black-S" d="M620,56 l0,110" />
        <path id="right-margin-Black-S" d="M710,56 l0,110" />
        <path id="Capline-M" d="M18,276 l800,0" />
        <path id="Baseline-M" d="M18,346 l800,0" />
        <path id="Capline-L" d="M18,476 l800,0" />
        <path id="Baseline-L" d="M18,546 l800,0" />
    </g>
    <g id="Symbols">
        <g id="Ultralight-S">
            <path d="M265,76 C284.316,76 300,91.684 300,111 C300,130.316 284.316,146 265,146 C245.684,146 230,130.316 230,111 C230,91.684 245.684,76 265,76 Z M283.689,120.921 C284.813,120.921 285.597,120.226 285.597,118.891 L285.597,103.123 C285.597,101.787 284.813,101.081 283.689,101.081 C282.58,101.081 281.782,101.79 281.782,103.123 L281.782,118.891 C281.782,120.226 282.58,120.921 283.689,120.921 Z M264.784,120.908 C266.898,120.908 268.284,119.866 268.974,118.064 L269.051,118.064 L269.051,118.946 C269.051,120.24 269.797,120.921 270.893,120.921 C271.989,120.921 272.734,120.24 272.734,118.946 L272.734,108.076 C272.734,106.741 271.95,106.035 270.827,106.035 C269.717,106.035 268.919,106.743 268.919,108.076 L268.919,114.525 C268.919,116.421 267.862,117.663 266.164,117.663 C264.48,117.663 263.553,116.649 263.553,114.739 L263.553,108.076 C263.553,106.741 262.769,106.035 261.646,106.035 C260.536,106.035 259.739,106.743 259.739,108.076 L259.739,115.553 C259.739,118.891 261.748,120.908 264.779,120.908 Z M246.308,120.921 C247.432,120.921 248.215,120.226 248.215,118.891 L248.215,112.429 C248.215,110.574 249.3,109.291 251.009,109.291 C252.72,109.291 253.582,110.36 253.582,112.228 L253.582,118.891 C253.582,120.226 254.366,120.921 255.489,120.921 C256.599,120.921 257.396,120.226 257.396,118.891 L257.396,111.415 C257.396,108.063 255.646,106.06 252.54,106.06 C250.387,106.06 248.977,107.035 248.231,108.81 L248.154,108.81 L248.154,108.008 C248.154,106.78 247.397,106.033 246.247,106.033 C245.098,106.033 244.406,106.78 244.406,107.994 L244.406,118.889 C244.406,120.224 245.203,120.919 246.313,120.919 Z M277.211,120.921 C278.335,120.921 279.118,120.226 279.118,118.891 L279.118,103.123 C279.118,101.787 278.335,101.081 277.211,101.081 C276.102,101.081 275.304,101.79 275.304,103.123 L275.304,118.891 C275.304,120.226 276.102,120.921 277.211,120.921 Z" />
        </g>
        <g id="Regular-S">
            <path d="M465,76 C484.316,76 500,91.684 500,111 C500,130.316 484.316,146 465,146 C445.684,146 430,130.316 430,111 C430,91.684 445.684,76 465,76 Z M483.689,120.921 C484.813,120.921 485.597,120.226 485.597,118.891 L485.597,103.123 C485.597,101.787 484.813,101.081 483.689,101.081 C482.58,101.081 481.782,101.79 481.782,103.123 L481.782,118.891 C481.782,120.226 482.58,120.921 483.689,120.921 Z M464.784,120.908 C466.898,120.908 468.284,119.866 468.974,118.064 L469.051,118.064 L469.051,118.946 C469.051,120.24 469.797,120.921 470.893,120.921 C471.989,120.921 472.734,120.24 472.734,118.946 L472.734,108.076 C472.734,106.741 471.95,106.035 470.827,106.035 C469.717,106.035 468.919,106.743 468.919,108.076 L468.919,114.525 C468.919,116.421 467.862,117.663 466.164,117.663 C464.48,117.663 463.553,116.649 463.553,114.739 L463.553,108.076 C463.553,106.741 462.769,106.035 461.646,106.035 C460.536,106.035 459.739,106.743 459.739,108.076 L459.739,115.553 C459.739,118.891 461.748,120.908 464.779,120.908 Z M446.308,120.921 C447.432,120.921 448.215,120.226 448.215,118.891 L448.215,112.429 C448.215,110.574 449.3,109.291 451.009,109.291 C452.72,109.291 453.582,110.36 453.582,112.228 L453.582,118.891 C453.582,120.226 454.366,120.921 455.489,120.921 C456.599,120.921 457.396,120.226 457.396,118.891 L457.396,111.415 C457.396,108.063 455.646,106.06 452.54,106.06 C450.387,106.06 448.977,107.035 448.231,108.81 L448.154,108.81 L448.154,108.008 C448.154,106.78 447.397,106.033 446.247,106.033 C445.098,106.033 444.406,106.78 444.406,107.994 L444.406,118.889 C444.406,120.224 445.203,120.919 446.313,120.919 Z M477.211,120.921 C478.335,120.921 479.118,120.226 479.118,118.891 L479.118,103.123 C479.118,101.787 478.335,101.081 477.211,101.081 C476.102,101.081 475.304,101.79 475.304,103.123 L475.304,118.891 C475.304,120.226 476.102,120.921 477.211,120.921 Z" />
        </g>
        <g id="Black-S">
            <path d="M665,76 C684.316,76 700,91.684 700,111 C700,130.316 684.316,146 665,146 C645.684,146 630,130.316 630,111 C630,91.684 645.684,76 665,76 Z M683.689,120.921 C684.813,120.921 685.597,120.226 685.597,118.891 L685.597,103.123 C685.597,101.787 684.813,101.081 683.689,101.081 C682.58,101.081 681.782,101.79 681.782,103.123 L681.782,118.891 C681.782,120.226 682.58,120.921 683.689,120.921 Z M664.784,120.908 C666.898,120.908 668.284,119.866 668.974,118.064 L669.051,118.064 L669.051,118.946 C669.051,120.24 669.797,120.921 670.893,120.921 C671.989,120.921 672.734,120.24 672.734,118.946 L672.734,108.076 C672.734,106.741 671.95,106.035 670.826,106.035 C669.717,106.035 668.919,106.743 668.919,108.076 L668.919,114.525 C668.919,116.421 667.862,117.663 666.164,117.663 C664.48,117.663 663.553,116.649 663.553,114.739 L663.553,108.076 C663.553,106.741 662.769,106.035 661.646,106.035 C660.536,106.035 659.739,106.743 659.739,108.076 L659.739,115.553 C659.739,118.891 661.748,120.908 664.779,120.908 Z M646.308,120.921 C647.432,120.921 648.216,120.226 648.216,118.891 L648.216,112.429 C648.216,110.574 649.3,109.291 651.009,109.291 C652.72,109.291 653.582,110.36 653.582,112.228 L653.582,118.891 C653.582,120.226 654.366,120.921 655.489,120.921 C656.599,120.921 657.396,120.226 657.396,118.891 L657.396,111.415 C657.396,108.063 655.646,106.06 652.54,106.06 C650.387,106.06 648.977,107.035 648.231,108.81 L648.154,108.81 L648.154,108.008 C648.154,106.78 647.397,106.033 646.247,106.033 C645.098,106.033 644.406,106.78 644.406,107.994 L644.406,118.889 C644.406,120.224 645.203,120.919 646.313,120.919 Z M677.211,120.921 C678.335,120.921 679.118,120.226 679.118,118.891 L679.118,103.123 C679.118,101.787 678.335,101.081 677.211,101.081 C676.102,101.081 675.304,101.79 675.304,103.123 L675.304,118.891 C675.304,120.226 676.102,120.921 677.211,120.921 Z" />
        </g>
    </g>
</svg>