<?xml version="1.0" encoding="UTF-8"?>
<svg height="600" width="800" xmlns="http://www.w3.org/2000/svg" xmlns:xlink="http://www.w3.org/1999/xlink">
    <g id="Notes" font-family="'LucidaGrande', 'Lucida Grande', sans-serif" font-size="13">
        <rect fill="white" height="600.0" width="800.0" x="0.0" y="0.0" />
        <g font-size="13">
            <text x="18.0" y="176.0">Small</text>
            <text x="18.0" y="376.0">Medium</text>
            <text x="18.0" y="576.0">Large</text>
        </g>
        <g font-size="9">
            <text x="250.0" y="30.0">Ultralight</text>
            <text x="450.0" y="30.0">Regular</text>
            <text x="650.0" y="30.0">Black</text>
            <text id="template-version" fill="#505050" text-anchor="end" x="785.0" y="575.0">Template v.3.0</text>
            <a href="https://wangchujiang.com/#/app">
                <text fill="#505050" text-anchor="end" x="785.0" y="590.0">https://wangchujiang.com/#/app</text>
            </a>
        </g>
    </g>
    <g id="Guides" stroke="rgb(39, 170, 225)" stroke-width="0.5">
        <path id="Capline-S" d="M18,76 l800,0" />
        <path id="H-reference" d="M85,145.755 L87.685,145.755 L113.369,79.287 L114.052,79.287 L114.052,76 L112.148,76 L85,145.755 Z M95.693,121.536 L130.996,121.536 L130.263,119.313 L96.474,119.313 L95.693,121.536 Z M139.15,145.755 L141.787,145.755 L114.638,76 L113.466,76 L113.466,79.287 L139.15,145.755 Z" stroke="none" />
        <path id="Baseline-S" d="M18,146 l800,0" />
        <path id="left-margin-Ultralight-S" d="M220,56 l0,110" />
        <path id="right-margin-Ultralight-S" d="M310,56 l0,110" />
        <path id="left-margin-Regular-S" d="M420,56 l0,110" />
        <path id="right-margin-Regular-S" d="M510,56 l0,110" />
        <path id="left-margin-Black-S" d="M620,56 l0,110" />
        <path id="right-margin-Black-S" d="M710,56 l0,110" />
        <path id="Capline-M" d="M18,276 l800,0" />
        <path id="Baseline-M" d="M18,346 l800,0" />
        <path id="Capline-L" d="M18,476 l800,0" />
        <path id="Baseline-L" d="M18,546 l800,0" />
    </g>
    <g id="Symbols">
        <g id="Ultralight-S">
            <path d="M265,76 C284.316,76 300,91.684 300,111 C300,130.316 284.316,146 265,146 C245.684,146 230,130.316 230,111 C230,91.684 245.684,76 265,76 Z M246.819,120.894 C248.058,120.894 248.79,120.119 248.79,118.798 L248.79,103.216 C248.79,101.881 248.058,101.106 246.819,101.106 C245.579,101.106 244.848,101.881 244.848,103.216 L244.848,118.798 C244.848,120.119 245.579,120.894 246.819,120.894 Z M253.816,120.894 C254.992,120.894 255.696,120.16 255.696,118.877 L255.696,108.022 L255.815,108.022 L263.988,119.732 C264.59,120.586 265.112,120.894 265.959,120.894 C267.199,120.894 267.892,120.185 267.892,118.932 L267.892,103.136 C267.892,101.842 267.199,101.106 266.012,101.106 C264.825,101.106 264.118,101.84 264.118,103.136 L264.118,113.924 L264.013,113.924 L255.867,102.282 C255.266,101.441 254.719,101.106 253.91,101.106 C252.657,101.106 251.925,101.84 251.925,103.123 L251.925,118.877 C251.925,120.158 252.629,120.894 253.819,120.894 Z M277.501,120.894 C278.74,120.894 279.472,120.119 279.472,118.798 L279.472,104.711 L283.375,104.711 C284.432,104.711 285.15,104.084 285.15,103.043 C285.15,102.002 284.446,101.375 283.375,101.375 L271.638,101.375 C270.553,101.375 269.849,102.002 269.849,103.043 C269.849,104.084 270.567,104.711 271.638,104.711 L275.527,104.711 L275.527,118.798 C275.527,120.119 276.259,120.894 277.498,120.894 Z" />
        </g>
        <g id="Regular-S">
            <path d="M465,76 C484.316,76 500,91.684 500,111 C500,130.316 484.316,146 465,146 C445.684,146 430,130.316 430,111 C430,91.684 445.684,76 465,76 Z M446.819,120.894 C448.058,120.894 448.79,120.119 448.79,118.798 L448.79,103.216 C448.79,101.881 448.058,101.106 446.819,101.106 C445.579,101.106 444.848,101.881 444.848,103.216 L444.848,118.798 C444.848,120.119 445.579,120.894 446.819,120.894 Z M453.816,120.894 C454.992,120.894 455.696,120.16 455.696,118.877 L455.696,108.022 L455.815,108.022 L463.988,119.732 C464.59,120.586 465.112,120.894 465.959,120.894 C467.199,120.894 467.892,120.185 467.892,118.932 L467.892,103.136 C467.892,101.842 467.199,101.106 466.012,101.106 C464.825,101.106 464.118,101.84 464.118,103.136 L464.118,113.924 L464.013,113.924 L455.867,102.282 C455.266,101.441 454.719,101.106 453.91,101.106 C452.657,101.106 451.925,101.84 451.925,103.123 L451.925,118.877 C451.925,120.158 452.629,120.894 453.819,120.894 Z M477.501,120.894 C478.74,120.894 479.472,120.119 479.472,118.798 L479.472,104.711 L483.375,104.711 C484.432,104.711 485.15,104.084 485.15,103.043 C485.15,102.002 484.446,101.375 483.375,101.375 L471.638,101.375 C470.553,101.375 469.849,102.002 469.849,103.043 C469.849,104.084 470.567,104.711 471.638,104.711 L475.527,104.711 L475.527,118.798 C475.527,120.119 476.259,120.894 477.498,120.894 Z" />
        </g>
        <g id="Black-S">
            <path d="M665,76 C684.316,76 700,91.684 700,111 C700,130.316 684.316,146 665,146 C645.684,146 630,130.316 630,111 C630,91.684 645.684,76 665,76 Z M646.819,120.894 C648.058,120.894 648.79,120.119 648.79,118.798 L648.79,103.216 C648.79,101.881 648.058,101.106 646.819,101.106 C645.579,101.106 644.848,101.881 644.848,103.216 L644.848,118.798 C644.848,120.119 645.579,120.894 646.819,120.894 Z M653.816,120.894 C654.992,120.894 655.696,120.16 655.696,118.877 L655.696,108.022 L655.815,108.022 L663.988,119.732 C664.59,120.586 665.112,120.894 665.959,120.894 C667.199,120.894 667.892,120.185 667.892,118.932 L667.892,103.136 C667.892,101.842 667.199,101.106 666.012,101.106 C664.825,101.106 664.118,101.84 664.118,103.136 L664.118,113.924 L664.013,113.924 L655.867,102.282 C655.266,101.441 654.719,101.106 653.91,101.106 C652.657,101.106 651.925,101.84 651.925,103.123 L651.925,118.877 C651.925,120.158 652.629,120.894 653.819,120.894 Z M677.501,120.894 C678.74,120.894 679.472,120.119 679.472,118.798 L679.472,104.711 L683.375,104.711 C684.432,104.711 685.15,104.084 685.15,103.043 C685.15,102.002 684.446,101.375 683.375,101.375 L671.638,101.375 C670.553,101.375 669.849,102.002 669.849,103.043 C669.849,104.084 670.567,104.711 671.638,104.711 L675.527,104.711 L675.527,118.798 C675.527,120.119 676.259,120.894 677.498,120.894 Z" />
        </g>
    </g>
</svg>