<?xml version="1.0" encoding="UTF-8"?>
<svg height="600" width="800" xmlns="http://www.w3.org/2000/svg" xmlns:xlink="http://www.w3.org/1999/xlink">
    <g id="Notes" font-family="'LucidaGrande', 'Lucida Grande', sans-serif" font-size="13">
        <rect fill="white" height="600.0" width="800.0" x="0.0" y="0.0" />
        <g font-size="13">
            <text x="18.0" y="176.0">Small</text>
            <text x="18.0" y="376.0">Medium</text>
            <text x="18.0" y="576.0">Large</text>
        </g>
        <g font-size="9">
            <text x="250.0" y="30.0">Ultralight</text>
            <text x="450.0" y="30.0">Regular</text>
            <text x="650.0" y="30.0">Black</text>
            <text id="template-version" fill="#505050" text-anchor="end" x="785.0" y="575.0">Template v.3.0</text>
            <a href="https://wangchujiang.com/#/app">
                <text fill="#505050" text-anchor="end" x="785.0" y="590.0">https://wangchujiang.com/#/app</text>
            </a>
        </g>
    </g>
    <g id="Guides" stroke="rgb(39, 170, 225)" stroke-width="0.5">
        <path id="Capline-S" d="M18,76 l800,0" />
        <path id="H-reference" d="M85,145.755 L87.685,145.755 L113.369,79.287 L114.052,79.287 L114.052,76 L112.148,76 L85,145.755 Z M95.693,121.536 L130.996,121.536 L130.263,119.313 L96.474,119.313 L95.693,121.536 Z M139.15,145.755 L141.787,145.755 L114.638,76 L113.466,76 L113.466,79.287 L139.15,145.755 Z" stroke="none" />
        <path id="Baseline-S" d="M18,146 l800,0" />
        <path id="left-margin-Ultralight-S" d="M220,56 l0,110" />
        <path id="right-margin-Ultralight-S" d="M310,56 l0,110" />
        <path id="left-margin-Regular-S" d="M420,56 l0,110" />
        <path id="right-margin-Regular-S" d="M510,56 l0,110" />
        <path id="left-margin-Black-S" d="M620,56 l0,110" />
        <path id="right-margin-Black-S" d="M710,56 l0,110" />
        <path id="Capline-M" d="M18,276 l800,0" />
        <path id="Baseline-M" d="M18,346 l800,0" />
        <path id="Capline-L" d="M18,476 l800,0" />
        <path id="Baseline-L" d="M18,546 l800,0" />
    </g>
    <g id="Symbols">
        <g id="Ultralight-S">
            <path d="M265,76 C284.316,76 300,91.684 300,111 C300,130.316 284.316,146 265,146 C245.684,146 230,130.316 230,111 C230,91.684 245.684,76 265,76 Z M269.822,118.469 C274.003,118.469 276.637,115.605 276.637,111.009 C276.637,106.404 274.003,103.528 269.822,103.528 C265.631,103.528 263.006,106.402 263.006,111.009 C263.006,115.605 265.631,118.469 269.822,118.469 Z M269.822,115.947 C267.502,115.947 266.023,114.035 266.023,111.009 C266.023,107.974 267.511,106.053 269.822,106.053 C272.132,106.053 273.611,107.976 273.611,111.009 C273.611,114.033 272.132,115.947 269.822,115.947 Z M280.014,118.23 L284.792,118.23 C287.809,118.23 289.678,116.637 289.678,114.094 C289.678,112.183 288.267,110.749 286.349,110.599 L286.349,110.519 C287.846,110.289 289.003,108.967 289.003,107.386 C289.003,105.174 287.338,103.781 284.685,103.781 L280.014,103.781 C279.084,103.781 278.535,104.362 278.535,105.354 L278.535,116.649 C278.535,117.649 279.084,118.23 280.014,118.23 Z M281.493,115.977 L281.493,111.782 L283.97,111.782 C285.713,111.782 286.663,112.502 286.663,113.855 C286.663,115.236 285.743,115.979 284.038,115.979 L281.493,115.979 Z M281.493,109.788 L281.493,106.033 L283.922,106.033 C285.303,106.033 286.096,106.693 286.096,107.855 C286.096,109.077 285.196,109.788 283.619,109.788 L281.493,109.788 Z M254.623,118.23 L261.115,118.23 C261.928,118.23 262.457,117.758 262.457,116.979 C262.457,116.198 261.919,115.728 261.115,115.728 L256.102,115.728 L256.102,105.164 C256.102,104.164 255.553,103.583 254.623,103.583 C253.693,103.583 253.144,104.164 253.144,105.164 L253.144,116.651 C253.144,117.651 253.693,118.232 254.623,118.232 Z M241.797,118.23 L246.575,118.23 C249.592,118.23 251.46,116.637 251.46,114.094 C251.46,112.183 250.05,110.749 248.131,110.599 L248.131,110.519 C249.628,110.289 250.786,108.967 250.786,107.386 C250.786,105.174 249.12,103.781 246.468,103.781 L241.797,103.781 C240.867,103.781 240.318,104.362 240.318,105.354 L240.318,116.649 C240.318,117.649 240.867,118.23 241.797,118.23 Z M243.275,109.788 L243.275,106.033 L245.704,106.033 C247.085,106.033 247.878,106.693 247.878,107.855 C247.878,109.077 246.978,109.788 245.401,109.788 L243.275,109.788 Z M243.275,115.977 L243.275,111.782 L245.752,111.782 C247.495,111.782 248.446,112.502 248.446,113.855 C248.446,115.236 247.525,115.979 245.821,115.979 L243.275,115.979 Z" />
        </g>
        <g id="Regular-S">
            <path d="M465,76 C484.316,76 500,91.684 500,111 C500,130.316 484.316,146 465,146 C445.684,146 430,130.316 430,111 C430,91.684 445.684,76 465,76 Z M469.822,118.469 C474.003,118.469 476.637,115.605 476.637,111.009 C476.637,106.404 474.003,103.528 469.822,103.528 C465.631,103.528 463.006,106.402 463.006,111.009 C463.006,115.605 465.631,118.469 469.822,118.469 Z M469.822,115.947 C467.502,115.947 466.023,114.035 466.023,111.009 C466.023,107.974 467.511,106.053 469.822,106.053 C472.132,106.053 473.611,107.976 473.611,111.009 C473.611,114.033 472.132,115.947 469.822,115.947 Z M480.014,118.23 L484.792,118.23 C487.809,118.23 489.678,116.637 489.678,114.094 C489.678,112.183 488.267,110.749 486.349,110.599 L486.349,110.519 C487.846,110.289 489.003,108.967 489.003,107.386 C489.003,105.174 487.338,103.781 484.685,103.781 L480.014,103.781 C479.084,103.781 478.535,104.362 478.535,105.354 L478.535,116.649 C478.535,117.649 479.084,118.23 480.014,118.23 Z M481.493,115.977 L481.493,111.782 L483.97,111.782 C485.713,111.782 486.663,112.502 486.663,113.855 C486.663,115.236 485.743,115.979 484.038,115.979 L481.493,115.979 Z M481.493,109.788 L481.493,106.033 L483.922,106.033 C485.303,106.033 486.096,106.693 486.096,107.855 C486.096,109.077 485.196,109.788 483.619,109.788 L481.493,109.788 Z M454.623,118.23 L461.115,118.23 C461.928,118.23 462.457,117.758 462.457,116.979 C462.457,116.198 461.919,115.728 461.115,115.728 L456.102,115.728 L456.102,105.164 C456.102,104.164 455.553,103.583 454.623,103.583 C453.693,103.583 453.144,104.164 453.144,105.164 L453.144,116.651 C453.144,117.651 453.693,118.232 454.623,118.232 Z M441.797,118.23 L446.575,118.23 C449.592,118.23 451.46,116.637 451.46,114.094 C451.46,112.183 450.05,110.749 448.131,110.599 L448.131,110.519 C449.628,110.289 450.786,108.967 450.786,107.386 C450.786,105.174 449.12,103.781 446.468,103.781 L441.797,103.781 C440.867,103.781 440.318,104.362 440.318,105.354 L440.318,116.649 C440.318,117.649 440.867,118.23 441.797,118.23 Z M443.275,109.788 L443.275,106.033 L445.704,106.033 C447.085,106.033 447.878,106.693 447.878,107.855 C447.878,109.077 446.978,109.788 445.401,109.788 L443.275,109.788 Z M443.275,115.977 L443.275,111.782 L445.752,111.782 C447.495,111.782 448.446,112.502 448.446,113.855 C448.446,115.236 447.525,115.979 445.821,115.979 L443.275,115.979 Z" />
        </g>
        <g id="Black-S">
            <path d="M665,76 C684.316,76 700,91.684 700,111 C700,130.316 684.316,146 665,146 C645.684,146 630,130.316 630,111 C630,91.684 645.684,76 665,76 Z M669.822,118.469 C674.003,118.469 676.637,115.605 676.637,111.009 C676.637,106.404 674.003,103.528 669.822,103.528 C665.631,103.528 663.006,106.402 663.006,111.009 C663.006,115.605 665.631,118.469 669.822,118.469 Z M669.822,115.947 C667.502,115.947 666.023,114.035 666.023,111.009 C666.023,107.974 667.511,106.053 669.822,106.053 C672.132,106.053 673.611,107.976 673.611,111.009 C673.611,114.033 672.132,115.947 669.822,115.947 Z M680.014,118.23 L684.792,118.23 C687.809,118.23 689.678,116.637 689.678,114.094 C689.678,112.183 688.267,110.749 686.349,110.599 L686.349,110.519 C687.846,110.289 689.003,108.967 689.003,107.386 C689.003,105.174 687.338,103.781 684.685,103.781 L680.014,103.781 C679.084,103.781 678.535,104.362 678.535,105.354 L678.535,116.649 C678.535,117.649 679.084,118.23 680.014,118.23 Z M681.493,115.977 L681.493,111.782 L683.97,111.782 C685.713,111.782 686.663,112.502 686.663,113.855 C686.663,115.236 685.742,115.979 684.038,115.979 L681.493,115.979 Z M681.493,109.788 L681.493,106.033 L683.922,106.033 C685.303,106.033 686.096,106.693 686.096,107.855 C686.096,109.077 685.196,109.788 683.619,109.788 L681.493,109.788 Z M654.623,118.23 L661.115,118.23 C661.928,118.23 662.457,117.758 662.457,116.979 C662.457,116.198 661.919,115.728 661.115,115.728 L656.102,115.728 L656.102,105.164 C656.102,104.164 655.553,103.583 654.623,103.583 C653.693,103.583 653.144,104.164 653.144,105.164 L653.144,116.651 C653.144,117.651 653.693,118.232 654.623,118.232 Z M641.797,118.23 L646.575,118.23 C649.592,118.23 651.46,116.637 651.46,114.094 C651.46,112.183 650.05,110.749 648.131,110.599 L648.131,110.519 C649.628,110.289 650.786,108.967 650.786,107.386 C650.786,105.174 649.12,103.781 646.468,103.781 L641.797,103.781 C640.867,103.781 640.318,104.362 640.318,105.354 L640.318,116.649 C640.318,117.649 640.867,118.23 641.797,118.23 Z M643.275,109.788 L643.275,106.033 L645.704,106.033 C647.085,106.033 647.878,106.693 647.878,107.855 C647.878,109.077 646.978,109.788 645.401,109.788 L643.275,109.788 Z M643.275,115.977 L643.275,111.782 L645.752,111.782 C647.495,111.782 648.446,112.502 648.446,113.855 C648.446,115.236 647.525,115.979 645.821,115.979 L643.275,115.979 Z" />
        </g>
    </g>
</svg>